<svg width="341" height="70" viewBox="0 0 341 70" fill="none" xmlns="http://www.w3.org/2000/svg">
<path d="M0 0H341V70H0V0Z" fill="#4E0A40"/>
<path d="M308.657 40.6864C309.827 40.6864 310.789 40.3224 311.569 39.5424C312.323 38.7884 312.713 37.8004 312.713 36.6044C312.713 35.4084 312.323 34.4204 311.595 33.6664C310.841 32.9124 309.853 32.5224 308.657 32.5224C307.435 32.5224 306.447 32.9124 305.719 33.6924C304.991 34.4724 304.627 35.4604 304.627 36.6044C304.627 37.7744 304.991 38.7364 305.771 39.5164C306.525 40.2964 307.487 40.6864 308.657 40.6864ZM304.393 48.9544H301.715V30.1824H304.237L304.393 32.2624C304.861 31.5344 305.485 30.9624 306.317 30.5464C307.149 30.1304 308.007 29.9224 308.917 29.9224C310.815 29.9484 312.375 30.5724 313.571 31.8204C314.767 33.0684 315.391 34.6804 315.391 36.6044C315.391 38.5804 314.793 40.1664 313.623 41.4144C312.427 42.6624 310.867 43.2864 308.917 43.2864C308.033 43.2864 307.149 43.1304 306.317 42.7664C305.485 42.4024 304.835 41.8564 304.393 41.1284V48.9544Z" fill="white"/>
<path d="M295.293 24.8262H297.971V43.0002H295.293V24.8262Z" fill="white"/>
<path d="M292.363 37.5922H281.937C282.093 38.6322 282.56 39.4382 283.34 40.0102C284.12 40.5822 285.031 40.8682 286.097 40.8682C287.787 40.8682 289.087 40.4262 289.997 39.4902L291.609 41.1282C290.231 42.5842 288.385 43.3122 286.097 43.3122C284.017 43.3122 282.534 42.6102 281.598 41.1542L281.52 43.0002H279.154L279.128 40.9722C278.712 41.7522 278.088 42.3242 277.23 42.7402C276.346 43.1562 275.514 43.3382 274.682 43.3382C272.732 43.3382 271.146 42.7662 269.924 41.5702C268.702 40.4002 268.104 38.7362 268.104 36.5782C268.104 34.4982 268.729 32.8862 269.977 31.6902C271.225 30.4942 272.836 29.8962 274.76 29.8962C275.67 29.8962 276.529 30.1042 277.335 30.5202C278.115 30.9362 278.738 31.5082 279.154 32.2102L279.232 30.1822H281.624V32.0542C282.664 30.5982 284.224 29.8442 286.252 29.8442C288.358 29.8442 290.022 30.5462 291.218 31.9502C292.414 33.3542 292.779 35.2522 292.363 37.5922ZM274.969 32.3402C273.773 32.3402 272.759 32.7302 271.979 33.5102C271.199 34.2902 270.809 35.3042 270.809 36.5782C270.809 37.8782 271.199 38.9182 271.979 39.6982C272.759 40.4782 273.773 40.8422 274.969 40.8422C275.749 40.8422 276.424 40.6862 277.048 40.3742C277.672 40.0622 278.14 39.6722 278.452 39.1522C278.764 38.6582 278.972 38.1122 279.128 37.5142C279.284 36.9162 279.284 36.3182 279.128 35.6942C278.972 35.0962 278.764 34.5502 278.452 34.0302C278.14 33.5362 277.672 33.1202 277.048 32.8082C276.424 32.4962 275.749 32.3402 274.969 32.3402ZM281.989 35.3302H289.893C289.893 34.3422 289.554 33.5882 288.878 33.0422C288.202 32.5222 287.292 32.2362 286.2 32.2362C285.16 32.2362 284.251 32.5222 283.471 33.0682C282.691 33.6142 282.197 34.3682 281.989 35.3302Z" fill="white"/>
<path d="M265.24 30.13V44.508C265.24 46.172 264.902 47.394 264.278 48.2C263.628 49.032 262.588 49.422 261.184 49.422C260.196 49.422 259.312 49.162 258.48 48.616L259.442 46.51C260.014 46.796 260.56 46.926 261.08 46.9C261.652 46.9 262.042 46.692 262.25 46.302C262.458 45.938 262.562 45.34 262.562 44.508V30.13H265.24ZM262.25 26.36C262.25 27.062 262.51 27.556 263.082 27.842C263.628 28.128 264.174 28.128 264.746 27.842C265.292 27.556 265.578 27.062 265.578 26.36C265.578 25.684 265.292 25.19 264.746 24.904C264.174 24.644 263.628 24.644 263.082 24.904C262.51 25.19 262.25 25.684 262.25 26.36Z" fill="white"/>
<path d="M246.998 24.8003H249.676V32.0803C250.664 30.7023 252.042 30.0003 253.836 30.0003C255.578 30.0003 256.904 30.5463 257.788 31.6383C258.672 32.7303 259.114 34.2123 259.114 36.0843V43.0003H256.436V36.1103C256.436 34.9403 256.15 34.0563 255.578 33.4323C255.006 32.8083 254.2 32.4963 253.212 32.4963C252.172 32.4963 251.34 32.8863 250.664 33.6143C249.988 34.3423 249.676 35.2523 249.676 36.3183V43.0003H246.998V24.8003Z" fill="white"/>
<path d="M237.84 26.7762L240.544 26.4902V30.2082H244.288V32.5222H240.518V38.6322C240.518 40.0362 241.116 40.7382 242.364 40.7382C242.858 40.7382 243.404 40.6082 244.002 40.2962L244.782 42.5842C243.898 42.9742 243.04 43.1562 242.208 43.1562C240.804 43.2082 239.712 42.8442 238.958 42.0642C238.204 41.2842 237.84 40.1402 237.84 38.6322V32.5222H235.37V30.2082H237.84V26.7762Z" fill="white"/>
<path d="M230.099 32.2105L230.177 30.1825H232.777V43.0005H230.229L230.099 40.9205C229.683 41.7005 229.059 42.2985 228.227 42.7145C227.395 43.1305 226.537 43.3385 225.679 43.3385C223.755 43.3645 222.169 42.7665 220.947 41.5705C219.699 40.3745 219.101 38.7105 219.101 36.5785C219.101 34.4985 219.725 32.8865 220.973 31.6905C222.221 30.4945 223.807 29.8965 225.731 29.8965C226.641 29.8965 227.499 30.1045 228.305 30.5205C229.085 30.9365 229.683 31.5085 230.099 32.2105ZM225.939 32.3405C224.743 32.3405 223.755 32.7305 222.975 33.5105C222.169 34.2905 221.779 35.3045 221.779 36.5785C221.779 37.8785 222.169 38.8925 222.975 39.6725C223.755 40.4525 224.743 40.8425 225.939 40.8425C226.693 40.8425 227.369 40.6865 227.967 40.3745C228.565 40.0625 229.007 39.6725 229.319 39.1525C229.631 38.6585 229.839 38.1125 229.995 37.5145C230.151 36.9165 230.151 36.3185 229.995 35.6945C229.839 35.0965 229.631 34.5505 229.319 34.0305C229.007 33.5365 228.565 33.1205 227.967 32.8085C227.369 32.4965 226.693 32.3405 225.939 32.3405Z" fill="white"/>
<path d="M207.312 24.8262H210.016V35.4342L214.774 30.1822H218.024V30.3382L212.486 36.2142L218.778 42.8182V43.0002H215.502L210.016 37.0722V43.0002H207.312V24.8262Z" fill="white"/>
<path d="M197.825 29.9224C199.775 29.9224 201.361 30.5724 202.609 31.8464C203.857 33.1204 204.481 34.7064 204.481 36.6044C204.481 38.5284 203.857 40.1404 202.635 41.3884C201.413 42.6364 199.801 43.2604 197.825 43.2604C195.849 43.2604 194.237 42.6364 193.041 41.3884C191.819 40.1404 191.221 38.5284 191.221 36.6044C191.221 34.6804 191.819 33.0944 193.041 31.8204C194.263 30.5724 195.849 29.9224 197.825 29.9224ZM197.825 32.3924C196.629 32.3924 195.693 32.8084 194.965 33.6144C194.237 34.4464 193.899 35.4344 193.899 36.6044C193.899 37.8004 194.237 38.7884 194.965 39.5684C195.667 40.3744 196.629 40.7644 197.825 40.7644C199.021 40.7644 199.957 40.3744 200.685 39.5684C201.413 38.7884 201.777 37.8004 201.777 36.6044C201.777 35.4604 201.387 34.4724 200.659 33.6404C199.905 32.8084 198.969 32.3924 197.825 32.3924Z" fill="white"/>
<path d="M187.3 30.1562H190.238L184.804 43.0523H181.866L176.406 30.1562H179.37L181.086 34.2903L183.348 40.2443L185.376 34.8103L187.3 30.1562Z" fill="white"/>
<path d="M167.182 32.4182C166.012 32.4182 165.05 32.8082 164.27 33.5362C163.49 34.2902 163.126 35.3042 163.126 36.5782C163.126 37.8522 163.49 38.8662 164.27 39.6202C165.05 40.4002 166.012 40.7642 167.182 40.7642C168.326 40.7642 169.288 40.3742 170.068 39.5942C170.848 38.8142 171.264 37.8262 171.264 36.5782C171.264 35.3822 170.848 34.3682 170.068 33.5882C169.288 32.8082 168.326 32.4182 167.182 32.4182ZM171.446 24.8262H174.124V43.0002H171.602L171.446 40.9722C170.51 42.5062 169.028 43.2602 167 43.2602C165.076 43.2602 163.516 42.6622 162.294 41.4662C161.046 40.2702 160.448 38.6582 160.448 36.5782C160.448 34.4722 161.046 32.8342 162.242 31.6642C163.438 30.4942 165.024 29.8962 166.948 29.8962C167.78 29.8962 168.638 30.1042 169.522 30.5202C170.406 30.9362 171.03 31.4822 171.446 32.1842V24.8262Z" fill="white"/>
<path d="M154.917 32.2105L154.995 30.1825H157.595V43.0005H155.047L154.917 40.9205C154.501 41.7005 153.877 42.2985 153.045 42.7145C152.213 43.1305 151.355 43.3385 150.497 43.3385C148.573 43.3645 146.987 42.7665 145.765 41.5705C144.517 40.3745 143.919 38.7105 143.919 36.5785C143.919 34.4985 144.543 32.8865 145.791 31.6905C147.039 30.4945 148.625 29.8965 150.549 29.8965C151.459 29.8965 152.317 30.1045 153.123 30.5205C153.903 30.9365 154.501 31.5085 154.917 32.2105ZM150.757 32.3405C149.561 32.3405 148.573 32.7305 147.793 33.5105C146.987 34.2905 146.597 35.3045 146.597 36.5785C146.597 37.8785 146.987 38.8925 147.793 39.6725C148.573 40.4525 149.561 40.8425 150.757 40.8425C151.511 40.8425 152.187 40.6865 152.785 40.3745C153.383 40.0625 153.825 39.6725 154.137 39.1525C154.449 38.6585 154.657 38.1125 154.813 37.5145C154.969 36.9165 154.969 36.3185 154.813 35.6945C154.657 35.0965 154.449 34.5505 154.137 34.0305C153.825 33.5365 153.383 33.1205 152.785 32.8085C152.187 32.4965 151.511 32.3405 150.757 32.3405Z" fill="white"/>
<path d="M134.948 31.5602L133.44 33.3282C132.556 32.5482 131.438 32.1322 130.06 32.1322C129.228 32.1322 128.552 32.2622 128.058 32.5222C127.564 32.7822 127.33 33.1722 127.33 33.6662C127.33 34.6022 128.266 35.1482 130.112 35.3042C130.84 35.3822 131.464 35.4862 131.984 35.5902C132.504 35.6942 133.076 35.9022 133.674 36.1622C134.272 36.4222 134.74 36.8382 135.052 37.3582C135.364 37.9042 135.546 38.5542 135.546 39.3342C135.52 40.5562 135.026 41.5442 134.038 42.2722C133.05 43.0262 131.724 43.3902 130.086 43.3902C127.59 43.3902 125.64 42.6102 124.236 41.0242L125.64 39.1262C126.732 40.3742 128.24 40.9982 130.138 41.0242C130.866 41.0242 131.49 40.8942 132.036 40.6082C132.556 40.3482 132.842 39.9322 132.868 39.3602C132.868 38.8142 132.634 38.3982 132.14 38.1382C131.646 37.8782 130.892 37.6962 129.904 37.5922C126.42 37.2802 124.678 35.9802 124.678 33.7442C124.678 32.4442 125.198 31.4822 126.29 30.8322C127.382 30.1822 128.604 29.8442 130.008 29.8442C132.01 29.8442 133.648 30.4162 134.948 31.5602Z" fill="white"/>
<path d="M121.606 30.1302V43.0002H118.928V30.1302H121.606ZM118.616 26.4122C118.616 27.1142 118.876 27.6082 119.448 27.8942C119.994 28.1802 120.54 28.1802 121.112 27.8942C121.658 27.6082 121.944 27.1142 121.944 26.4122C121.944 25.7362 121.658 25.2422 121.112 24.9562C120.54 24.6962 119.994 24.6962 119.448 24.9562C118.876 25.2422 118.616 25.7362 118.616 26.4122Z" fill="white"/>
<path d="M109.77 26.7762L112.474 26.4902V30.2082H116.218V32.5222H112.448V38.6322C112.448 40.0362 113.046 40.7382 114.294 40.7382C114.788 40.7382 115.334 40.6082 115.932 40.2962L116.712 42.5842C115.828 42.9742 114.97 43.1562 114.138 43.1562C112.734 43.2082 111.642 42.8442 110.888 42.0642C110.134 41.2842 109.77 40.1402 109.77 38.6322V32.5222H107.3V30.2082H109.77V26.7762Z" fill="white"/>
<path d="M102.028 32.2105L102.106 30.1825H104.706V43.0005H102.158L102.028 40.9205C101.612 41.7005 100.988 42.2985 100.156 42.7145C99.3243 43.1305 98.4663 43.3385 97.6083 43.3385C95.6843 43.3645 94.0983 42.7665 92.8763 41.5705C91.6283 40.3745 91.0303 38.7105 91.0303 36.5785C91.0303 34.4985 91.6543 32.8865 92.9023 31.6905C94.1503 30.4945 95.7363 29.8965 97.6603 29.8965C98.5703 29.8965 99.4283 30.1045 100.234 30.5205C101.014 30.9365 101.612 31.5085 102.028 32.2105ZM97.8683 32.3405C96.6723 32.3405 95.6843 32.7305 94.9043 33.5105C94.0983 34.2905 93.7083 35.3045 93.7083 36.5785C93.7083 37.8785 94.0983 38.8925 94.9043 39.6725C95.6843 40.4525 96.6723 40.8425 97.8683 40.8425C98.6223 40.8425 99.2983 40.6865 99.8963 40.3745C100.494 40.0625 100.936 39.6725 101.248 39.1525C101.56 38.6585 101.768 38.1125 101.924 37.5145C102.08 36.9165 102.08 36.3185 101.924 35.6945C101.768 35.0965 101.56 34.5505 101.248 34.0305C100.936 33.5365 100.494 33.1205 99.8963 32.8085C99.2983 32.4965 98.6223 32.3405 97.8683 32.3405Z" fill="white"/>
<path d="M80.7148 30.1825H83.2108L83.3928 31.8725C84.1208 30.5725 85.3948 29.8965 87.1628 29.8965C88.4628 29.8965 89.5028 30.2605 90.3348 30.9885L89.1128 33.3285C88.4628 32.8085 87.7088 32.5485 86.8508 32.5485C85.8628 32.5485 85.0308 32.8605 84.3808 33.4585C83.7048 34.0825 83.3928 34.9405 83.3928 36.0585V43.0005H80.7148V30.1825Z" fill="white"/>
<path d="M74.3639 30.676L75.7679 28.96L77.7179 30.468L76.1839 32.262C77.2239 33.484 77.7439 34.81 77.7439 36.24C77.7439 37.41 77.4579 38.424 76.8859 39.282C76.3139 40.166 75.4559 40.816 74.3379 41.232C76.5739 42.012 77.7179 43.39 77.7179 45.418C77.7179 47.082 77.0159 48.356 75.6639 49.266C74.3119 50.202 72.6999 50.644 70.8539 50.644C68.7219 50.644 67.0579 50.15 65.8359 49.136C64.6139 48.122 64.0419 46.718 64.0939 44.95H66.7719C66.7199 45.912 67.1099 46.666 67.9159 47.212C68.7219 47.758 69.7099 48.044 70.8539 48.044C71.9459 48.044 72.8819 47.836 73.7139 47.368C74.5199 46.926 74.9359 46.276 74.9359 45.418C74.9359 44.534 74.5459 43.858 73.8179 43.364C73.0899 42.896 72.1019 42.636 70.9059 42.636C68.7999 42.636 67.1099 42.064 65.8619 40.92C64.5879 39.776 63.9639 38.216 63.9639 36.24C63.9639 34.212 64.6399 32.652 66.0179 31.508C67.3699 30.364 69.0079 29.792 70.9059 29.792C72.3359 29.792 73.4799 30.104 74.3639 30.676ZM70.9059 32.288C69.7099 32.288 68.7219 32.652 67.8899 33.328C67.0579 34.004 66.6679 34.992 66.6679 36.24C66.6679 37.488 67.0579 38.45 67.8639 39.126C68.6699 39.828 69.6839 40.166 70.9059 40.166C72.1019 40.166 73.0899 39.802 73.8699 39.074C74.6499 38.346 75.0659 37.384 75.0659 36.24C75.0659 35.044 74.6499 34.082 73.8439 33.354C73.0379 32.652 72.0499 32.288 70.9059 32.288Z" fill="white"/>
<path d="M51.958 32.2104L52.036 30.1824H54.636V43.0004H52.088L51.958 40.9204C51.542 41.7004 50.918 42.2984 50.086 42.7144C49.254 43.1304 48.396 43.3384 47.538 43.3384C45.614 43.3644 44.028 42.7664 42.806 41.5704C41.558 40.3744 40.96 38.7104 40.96 36.5784C40.96 34.4984 41.584 32.8864 42.832 31.6904C44.08 30.4944 45.666 29.8964 47.59 29.8964C48.5 29.8964 49.358 30.1044 50.164 30.5204C50.944 30.9364 51.542 31.5084 51.958 32.2104ZM47.798 32.3404C46.602 32.3404 45.614 32.7304 44.834 33.5104C44.028 34.2904 43.638 35.3044 43.638 36.5784C43.638 37.8784 44.028 38.8924 44.834 39.6724C45.614 40.4524 46.602 40.8424 47.798 40.8424C48.552 40.8424 49.228 40.6864 49.826 40.3744C50.424 40.0624 50.866 39.6724 51.178 39.1524C51.49 38.6584 51.698 38.1124 51.854 37.5144C52.01 36.9164 52.01 36.3184 51.854 35.6944C51.698 35.0964 51.49 34.5504 51.178 34.0304C50.866 33.5364 50.424 33.1204 49.826 32.8084C49.228 32.4964 48.552 32.3404 47.798 32.3404ZM44.886 25.9444C44.886 25.0604 45.198 24.3844 45.822 23.8644C46.446 23.3704 47.2 23.1104 48.11 23.1104C48.994 23.1104 49.774 23.3704 50.45 23.8644C51.1 24.3844 51.438 25.0604 51.438 25.9444C51.438 26.8544 51.1 27.5564 50.476 28.0764C49.852 28.5964 49.072 28.8304 48.136 28.8304C47.2 28.8304 46.446 28.5704 45.822 28.0504C45.198 27.5304 44.886 26.8284 44.886 25.9444ZM48.11 24.6184C47.486 24.6184 47.044 24.8524 46.784 25.2684C46.524 25.7104 46.524 26.1524 46.784 26.5684C47.044 27.0104 47.486 27.2184 48.11 27.2184C48.76 27.2184 49.228 27.0104 49.488 26.5684C49.748 26.1524 49.722 25.7104 49.462 25.2684C49.176 24.8524 48.734 24.6184 48.11 24.6184Z" fill="white"/>
<path d="M29.2001 43.0002H26.2881V24.8262H39.1581V27.6602H29.2001V33.1982H38.6641V35.9022H29.2001V43.0002Z" fill="white"/>
</svg>
