<svg width="500" height="334" viewBox="0 0 500 334" fill="none" xmlns="http://www.w3.org/2000/svg">
<path d="M0 0H500V334H0V0Z" fill="#8AFF9D"/>
<path d="M270.08 131.72L259.28 137.48C257.6 134.6 254.72 132.32 250.88 130.64C247.04 128.96 242.84 128.12 238.4 128C232.76 128 227.84 129.2 223.76 131.36C219.68 133.64 217.64 136.88 217.76 141.2C217.76 143.36 218.24 145.04 219.32 146.48C220.28 147.92 221.96 149 224.24 149.84C226.52 150.8 228.68 151.4 230.6 151.76C232.52 152.24 235.28 152.6 238.88 153.08C242.84 153.68 246.32 154.28 249.2 154.88C252.08 155.48 255.2 156.44 258.56 157.64C261.92 158.96 264.68 160.52 266.84 162.2C268.88 164 270.68 166.28 272.12 169.16C273.56 172.04 274.28 175.28 274.28 178.88C274.28 186.56 271.4 192.56 265.76 196.88C260 201.32 253.16 203.84 245.24 204.32V216.32H232.52V204.8C225.68 204.32 219.44 202.52 213.68 199.4C207.92 196.28 203.72 191.84 201.2 186.08L212.6 180.08C214.28 184.04 217.64 187.16 222.56 189.44C227.48 191.72 232.64 192.8 238.04 192.8C244.28 192.8 249.56 191.72 253.88 189.56C258.2 187.4 260.36 183.92 260.36 178.88C260.36 176.72 259.76 174.92 258.56 173.24C257.36 171.56 255.56 170.24 253.28 169.28C250.88 168.32 248.6 167.48 246.2 166.88C243.8 166.4 240.92 165.8 237.56 165.32C234.2 164.96 231.32 164.6 229.16 164.12C227 163.76 224.48 163.16 221.6 162.44C218.72 161.72 216.44 160.76 214.64 159.56C212.72 158.48 211.04 157.16 209.36 155.48C207.68 153.92 206.36 151.88 205.52 149.48C204.68 147.08 204.32 144.44 204.32 141.32C204.32 137.6 205.04 134.24 206.72 131.24C208.28 128.24 210.44 125.72 213.2 123.8C215.96 121.88 218.96 120.44 222.2 119.36C225.44 118.28 228.92 117.56 232.52 117.08V106.28H245.36V117.08C251.12 117.8 255.92 119.24 260 121.4C264.08 123.56 267.44 127.04 270.08 131.72Z" fill="black"/>
</svg>
