<svg width="500" height="334" viewBox="0 0 500 334" fill="none" xmlns="http://www.w3.org/2000/svg">
<path d="M0 0H500V334H0V0Z" fill="#8AFF9D"/>
<path d="M310.94 204H298.46V172.32C298.46 167.16 297.02 163.08 294.26 159.96C291.38 156.84 287.54 155.28 282.5 155.28C277.7 155.28 273.74 157.08 270.62 160.44C267.5 163.92 265.94 168.12 265.94 173.04V204H253.58V144.72H264.86L265.58 153.36C271.1 147.12 277.82 143.88 285.5 143.88C292.94 143.88 298.94 146.4 303.74 151.44C308.54 156.48 310.94 163.44 310.94 172.2V204Z" fill="black"/>
<path d="M236.76 144.6V204H224.4V144.6H236.76ZM222.96 127.44C222.96 130.68 224.16 132.96 226.8 134.28C229.32 135.6 231.84 135.6 234.48 134.28C237 132.96 238.32 130.68 238.32 127.44C238.32 124.32 237 122.04 234.48 120.72C231.84 119.52 229.32 119.52 226.8 120.72C224.16 122.04 222.96 124.32 222.96 127.44Z" fill="black"/>
</svg>
