<svg width="341" height="70" viewBox="0 0 341 70" fill="none" xmlns="http://www.w3.org/2000/svg">
<path d="M0 0H341V70H0V0Z" fill="#8AFF9D"/>
<path d="M286.372 31.675L287.776 29.959L289.726 31.467L288.192 33.261C289.232 34.483 289.752 35.809 289.752 37.239C289.752 38.409 289.466 39.423 288.894 40.281C288.322 41.165 287.464 41.815 286.346 42.231C288.582 43.011 289.726 44.389 289.726 46.417C289.726 48.081 289.024 49.355 287.672 50.265C286.32 51.201 284.708 51.643 282.862 51.643C280.73 51.643 279.066 51.149 277.844 50.135C276.622 49.121 276.05 47.717 276.102 45.949H278.78C278.728 46.911 279.118 47.665 279.924 48.211C280.73 48.757 281.718 49.043 282.862 49.043C283.954 49.043 284.89 48.835 285.722 48.367C286.528 47.925 286.944 47.275 286.944 46.417C286.944 45.533 286.554 44.857 285.826 44.363C285.098 43.895 284.11 43.635 282.914 43.635C280.808 43.635 279.118 43.063 277.87 41.919C276.596 40.775 275.972 39.215 275.972 37.239C275.972 35.211 276.648 33.651 278.026 32.507C279.378 31.363 281.016 30.791 282.914 30.791C284.344 30.791 285.488 31.103 286.372 31.675ZM282.914 33.287C281.718 33.287 280.73 33.651 279.898 34.327C279.066 35.003 278.676 35.991 278.676 37.239C278.676 38.487 279.066 39.449 279.872 40.125C280.678 40.827 281.692 41.165 282.914 41.165C284.11 41.165 285.098 40.801 285.878 40.073C286.658 39.345 287.074 38.383 287.074 37.239C287.074 36.043 286.658 35.081 285.852 34.353C285.046 33.651 284.058 33.287 282.914 33.287Z" fill="black"/>
<path d="M273.31 43.9996H270.606V37.1356C270.606 36.0176 270.294 35.1336 269.696 34.4576C269.072 33.7816 268.24 33.4436 267.148 33.4436C266.108 33.4436 265.25 33.8336 264.574 34.5616C263.898 35.3156 263.56 36.2256 263.56 37.2916V43.9996H260.882V31.1556H263.326L263.482 33.0276C264.678 31.6756 266.134 30.9736 267.798 30.9736C269.41 30.9736 270.71 31.5196 271.75 32.6116C272.79 33.7036 273.31 35.2116 273.31 37.1096V43.9996Z" fill="black"/>
<path d="M257.238 31.1297V43.9997H254.56V31.1297H257.238ZM254.248 27.4117C254.248 28.1137 254.508 28.6077 255.08 28.8937C255.626 29.1797 256.172 29.1797 256.744 28.8937C257.29 28.6077 257.576 28.1137 257.576 27.4117C257.576 26.7357 257.29 26.2417 256.744 25.9557C256.172 25.6957 255.626 25.6957 255.08 25.9557C254.508 26.2417 254.248 26.7357 254.248 27.4117Z" fill="black"/>
<path d="M243.109 31.1815H245.605L245.787 32.8715C246.515 31.5715 247.789 30.8955 249.557 30.8955C250.857 30.8955 251.897 31.2595 252.729 31.9875L251.507 34.3275C250.857 33.8075 250.103 33.5475 249.245 33.5475C248.257 33.5475 247.425 33.8595 246.775 34.4575C246.099 35.0815 245.787 35.9395 245.787 37.0575V43.9995H243.109V31.1815Z" fill="black"/>
<path d="M229.753 25.8262H232.457V36.4342L237.215 31.1822H240.465V31.3382L234.927 37.2142L241.219 43.8182V44.0002H237.943L232.457 38.0722V44.0002H229.753V25.8262Z" fill="black"/>
<path d="M226.109 31.1297V43.9997H223.431V31.1297H226.109ZM223.119 27.4117C223.119 28.1137 223.379 28.6077 223.951 28.8937C224.497 29.1797 225.043 29.1797 225.615 28.8937C226.161 28.6077 226.447 28.1137 226.447 27.4117C226.447 26.7357 226.161 26.2417 225.615 25.9557C225.043 25.6957 224.497 25.6957 223.951 25.9557C223.379 26.2417 223.119 26.7357 223.119 27.4117Z" fill="black"/>
<path d="M220.155 32.5598L218.647 34.3278C217.763 33.5478 216.645 33.1318 215.267 33.1318C214.435 33.1318 213.759 33.2618 213.265 33.5218C212.771 33.7818 212.537 34.1718 212.537 34.6658C212.537 35.6018 213.473 36.1478 215.319 36.3038C216.047 36.3818 216.671 36.4858 217.191 36.5898C217.711 36.6938 218.283 36.9018 218.881 37.1618C219.479 37.4218 219.947 37.8378 220.259 38.3578C220.571 38.9038 220.753 39.5538 220.753 40.3338C220.727 41.5558 220.233 42.5438 219.245 43.2718C218.257 44.0258 216.931 44.3898 215.293 44.3898C212.797 44.3898 210.847 43.6098 209.443 42.0238L210.847 40.1258C211.939 41.3738 213.447 41.9978 215.345 42.0238C216.073 42.0238 216.697 41.8938 217.243 41.6078C217.763 41.3478 218.049 40.9318 218.075 40.3598C218.075 39.8138 217.841 39.3978 217.347 39.1378C216.853 38.8778 216.099 38.6957 215.111 38.5918C211.627 38.2797 209.885 36.9798 209.885 34.7438C209.885 33.4438 210.405 32.4818 211.497 31.8318C212.589 31.1818 213.811 30.8438 215.215 30.8438C217.217 30.8438 218.855 31.4158 220.155 32.5598Z" fill="black"/>
<path d="M199.005 31.1815H201.501L201.683 32.8715C202.411 31.5715 203.685 30.8955 205.453 30.8955C206.753 30.8955 207.793 31.2595 208.625 31.9875L207.403 34.3275C206.753 33.8075 205.999 33.5475 205.141 33.5475C204.153 33.5475 203.321 33.8595 202.671 34.4575C201.995 35.0815 201.683 35.9395 201.683 37.0575V43.9995H199.005V31.1815Z" fill="black"/>
<path d="M189.519 30.9219C191.469 30.9219 193.055 31.5719 194.303 32.8459C195.551 34.1199 196.175 35.7059 196.175 37.6039C196.175 39.5279 195.551 41.1399 194.329 42.3879C193.107 43.6359 191.495 44.2599 189.519 44.2599C187.543 44.2599 185.931 43.6359 184.735 42.3879C183.513 41.1399 182.915 39.5279 182.915 37.6039C182.915 35.6799 183.513 34.0939 184.735 32.8199C185.957 31.5719 187.543 30.9219 189.519 30.9219ZM189.519 33.3919C188.323 33.3919 187.387 33.8079 186.659 34.6139C185.931 35.4459 185.593 36.4339 185.593 37.6039C185.593 38.7999 185.931 39.7879 186.659 40.5679C187.361 41.3739 188.323 41.7639 189.519 41.7639C190.715 41.7639 191.651 41.3739 192.379 40.5679C193.107 39.7879 193.471 38.7999 193.471 37.6039C193.471 36.4599 193.081 35.4719 192.353 34.6399C191.599 33.8079 190.663 33.3919 189.519 33.3919Z" fill="black"/>
<path d="M177.849 43.9991H175.145V33.7031H172.701V31.3371H175.145V30.4011C175.145 28.8671 175.561 27.6711 176.419 26.8131C177.277 25.9811 178.395 25.5391 179.773 25.5391C180.865 25.5391 181.905 25.8771 182.919 26.5531L181.879 28.5551C181.177 28.1131 180.527 27.8791 179.929 27.8791C179.279 27.8791 178.759 28.1131 178.395 28.5291C178.031 28.9451 177.849 29.5691 177.849 30.4011V31.3371H181.723V33.7031H177.849V43.9991Z" fill="black"/>
<path d="M171.062 38.5918H160.662C160.766 39.5798 161.208 40.3598 161.962 40.9318C162.716 41.5298 163.678 41.8158 164.848 41.8158C165.524 41.8158 166.226 41.7118 166.928 41.4518C167.63 41.1918 168.176 40.8538 168.566 40.4378L170.308 42.1278C169.658 42.8298 168.826 43.3758 167.838 43.7398C166.85 44.1298 165.836 44.3118 164.796 44.3118C162.69 44.3118 161 43.7138 159.752 42.4658C158.504 41.2438 157.88 39.6058 157.88 37.5258C157.88 35.5758 158.504 33.9638 159.752 32.7158C161 31.4678 162.612 30.8438 164.614 30.8438C166.746 30.8438 168.436 31.5198 169.632 32.8198C170.828 34.1458 171.296 36.0697 171.062 38.5918ZM160.714 36.3298H168.488C168.41 35.3418 168.02 34.5878 167.344 34.0418C166.668 33.5218 165.784 33.2358 164.692 33.2358C163.678 33.2358 162.82 33.5218 162.092 34.0418C161.364 34.5878 160.922 35.3418 160.714 36.3298Z" fill="black"/>
<path d="M155.015 31.1297V43.9997H152.337V31.1297H155.015ZM152.025 27.4117C152.025 28.1137 152.285 28.6077 152.857 28.8937C153.403 29.1797 153.949 29.1797 154.521 28.8937C155.067 28.6077 155.353 28.1137 155.353 27.4117C155.353 26.7357 155.067 26.2417 154.521 25.9557C153.949 25.6957 153.403 25.6957 152.857 25.9557C152.285 26.2417 152.025 26.7357 152.025 27.4117Z" fill="black"/>
<path d="M141.762 33.4182C140.592 33.4182 139.63 33.8082 138.85 34.5362C138.07 35.2902 137.706 36.3042 137.706 37.5782C137.706 38.8522 138.07 39.8662 138.85 40.6202C139.63 41.4002 140.592 41.7642 141.762 41.7642C142.906 41.7642 143.868 41.3742 144.648 40.5942C145.428 39.8142 145.844 38.8262 145.844 37.5782C145.844 36.3822 145.428 35.3682 144.648 34.5882C143.868 33.8082 142.906 33.4182 141.762 33.4182ZM146.026 25.8262H148.704V44.0002H146.182L146.026 41.9722C145.09 43.5062 143.608 44.2602 141.58 44.2602C139.656 44.2602 138.096 43.6622 136.874 42.4662C135.626 41.2702 135.028 39.6582 135.028 37.5782C135.028 35.4722 135.626 33.8342 136.822 32.6642C138.018 31.4942 139.604 30.8962 141.528 30.8962C142.36 30.8962 143.218 31.1042 144.102 31.5202C144.986 31.9362 145.61 32.4822 146.026 33.1842V25.8262Z" fill="black"/>
<path d="M119.756 31.1816H122.434V38.0456C122.434 39.1636 122.72 40.0476 123.344 40.7236C123.968 41.3996 124.826 41.7376 125.918 41.7376C126.958 41.7376 127.79 41.3736 128.466 40.6196C129.142 39.8916 129.48 38.9556 129.48 37.8636V31.1816H132.158V44.0256H129.74L129.584 42.1276C128.362 43.5316 126.88 44.2076 125.164 44.2076C123.552 44.2076 122.226 43.6616 121.238 42.5696C120.25 41.4776 119.756 39.9956 119.756 38.0716V31.1816Z" fill="black"/>
<path d="M110.806 27.7762L113.51 27.4902V31.2082H117.254V33.5222H113.484V39.6322C113.484 41.0362 114.082 41.7382 115.33 41.7382C115.824 41.7382 116.37 41.6082 116.968 41.2962L117.748 43.5842C116.864 43.9742 116.006 44.1562 115.174 44.1562C113.77 44.2082 112.678 43.8442 111.924 43.0642C111.17 42.2842 110.806 41.1402 110.806 39.6322V33.5222H108.336V31.2082H110.806V27.7762Z" fill="black"/>
<path d="M106.267 28.3473L104.057 29.8293C103.615 29.2053 102.991 28.7373 102.185 28.3733C101.379 28.0093 100.495 27.8273 99.5585 27.8013C98.3105 27.8013 97.2965 28.0613 96.5165 28.5553C95.7365 29.0493 95.3465 29.7253 95.3465 30.5573C95.3465 31.3633 95.7105 31.9353 96.4645 32.2993C97.2185 32.6633 98.3105 32.9493 99.7665 33.1573C100.833 33.3133 101.743 33.4953 102.523 33.7033C103.277 33.9113 104.031 34.2233 104.785 34.6393C105.513 35.0553 106.085 35.6013 106.475 36.3033C106.865 37.0053 107.073 37.8373 107.073 38.7993C107.073 40.0993 106.683 41.1913 105.929 42.0493C105.175 42.9333 104.265 43.5313 103.173 43.8953C102.081 44.2593 100.885 44.4153 99.5325 44.4153C95.7885 44.4153 93.1885 43.0373 91.7065 40.2813L93.8905 38.8253C95.0605 40.8273 96.9585 41.8153 99.5585 41.8153C100.339 41.8153 101.067 41.7373 101.743 41.5553C102.393 41.3993 102.965 41.0613 103.433 40.5933C103.901 40.1253 104.161 39.5273 104.161 38.7993C104.161 37.8893 103.745 37.2133 102.913 36.7713C102.081 36.3293 100.963 36.0173 99.5065 35.8093C98.6745 35.7053 97.9465 35.6013 97.3485 35.4453C96.7505 35.3153 96.1265 35.1073 95.4765 34.8473C94.8005 34.5873 94.2805 34.2753 93.8645 33.9113C93.4485 33.5473 93.1105 33.0793 92.8505 32.5073C92.5905 31.9353 92.4605 31.2593 92.4605 30.5053C92.4605 29.6213 92.6685 28.8153 93.0845 28.1133C93.5005 27.4373 94.0465 26.8913 94.7485 26.4753C95.4245 26.0853 96.1785 25.7993 96.9845 25.5913C97.7645 25.3833 98.5965 25.2793 99.4805 25.2793C102.705 25.2793 104.967 26.3193 106.267 28.3473Z" fill="black"/>
<path d="M81.9211 43.9988L80.1791 40.1768H70.3251L68.6091 43.9988H65.5151L73.6791 25.7988H76.8511L85.0151 43.9988H81.9211ZM79.1131 37.5248L75.2651 28.8668L71.4171 37.5248H79.1131Z" fill="black"/>
<path d="M62.5999 39.6573L64.6019 41.6593C62.7819 43.4793 60.4939 44.3633 57.7639 44.3633C56.1519 44.3633 54.7479 44.1033 53.4999 43.5833C52.2519 43.0633 51.2379 42.3613 50.4839 41.4773C49.7039 40.5933 49.1319 39.6053 48.7419 38.5133C48.3519 37.4213 48.1699 36.2773 48.1699 35.0293C48.1699 33.8073 48.3519 32.6373 48.7679 31.5193C49.1579 30.4013 49.7299 29.3873 50.5099 28.4773C51.2639 27.5673 52.2779 26.8393 53.5259 26.2933C54.7739 25.7733 56.2039 25.4873 57.7639 25.4873C60.3639 25.4873 62.5739 26.4233 64.4199 28.2433L62.4699 30.1153C61.1959 28.8673 59.6359 28.2433 57.7639 28.2433C55.5799 28.2433 53.9159 28.9193 52.7719 30.2453C51.6019 31.5973 51.0299 33.1833 51.0559 35.0033C51.0559 36.8493 51.6279 38.4093 52.7719 39.7093C53.8899 41.0093 55.5539 41.6333 57.7639 41.6333C58.6219 41.6333 59.4799 41.4773 60.3639 41.1133C61.2219 40.7753 61.9759 40.2813 62.5999 39.6573Z" fill="black"/>
</svg>
