<svg width="138" height="46" viewBox="0 0 138 46" fill="none" xmlns="http://www.w3.org/2000/svg">
<path d="M17.688 14.512V31H16.608V16.768L10.272 31H9.408L3.048 16.768V31H1.968V14.512H3.12L9.84 29.584L16.56 14.512H17.688ZM22.2075 15.064C21.9515 15.064 21.7355 14.984 21.5595 14.824C21.3835 14.648 21.2955 14.416 21.2955 14.128C21.2955 13.856 21.3835 13.632 21.5595 13.456C21.7355 13.28 21.9515 13.192 22.2075 13.192C22.4635 13.192 22.6795 13.28 22.8555 13.456C23.0315 13.632 23.1195 13.856 23.1195 14.128C23.1195 14.416 23.0315 14.648 22.8555 14.824C22.6795 14.984 22.4635 15.064 22.2075 15.064ZM22.7355 17.968V31H21.6555V17.968H22.7355ZM28.3026 18.904V27.52C28.3026 28.48 28.4786 29.144 28.8306 29.512C29.1826 29.864 29.8066 30.04 30.7026 30.04H32.1666V31H30.5346C29.3986 31 28.5586 30.736 28.0146 30.208C27.4866 29.664 27.2226 28.768 27.2226 27.52V18.904H25.2546V17.968H27.2226V14.656H28.3026V17.968H32.1666V18.904H28.3026ZM41.1163 22.6C41.1163 20.936 41.4603 19.456 42.1483 18.16C42.8523 16.848 43.8123 15.824 45.0283 15.088C46.2603 14.352 47.6363 13.984 49.1563 13.984C51.0763 13.984 52.6923 14.432 54.0043 15.328C55.3163 16.224 56.2763 17.48 56.8843 19.096H55.6363C55.1563 17.816 54.3563 16.808 53.2363 16.072C52.1323 15.32 50.7723 14.944 49.1563 14.944C47.8603 14.944 46.6843 15.256 45.6283 15.88C44.5723 16.488 43.7403 17.376 43.1323 18.544C42.5243 19.696 42.2203 21.048 42.2203 22.6C42.2203 24.136 42.5243 25.48 43.1323 26.632C43.7403 27.768 44.5723 28.648 45.6283 29.272C46.6843 29.896 47.8603 30.208 49.1563 30.208C50.7723 30.208 52.1323 29.84 53.2363 29.104C54.3563 28.352 55.1563 27.336 55.6363 26.056H56.8843C56.2763 27.672 55.3163 28.928 54.0043 29.824C52.6923 30.72 51.0763 31.168 49.1563 31.168C47.6363 31.168 46.2603 30.808 45.0283 30.088C43.8123 29.352 42.8523 28.336 42.1483 27.04C41.4603 25.728 41.1163 24.248 41.1163 22.6ZM69.8091 26.68H61.8171L60.2091 31H59.0331L65.2251 14.536H66.4251L72.5931 31H71.4171L69.8091 26.68ZM69.4731 25.768L65.8251 15.952L62.1531 25.768H69.4731Z" fill="white"/>
<circle cx="115.5" cy="12.0732" r="10.5732" stroke="white" stroke-width="3"/>
<path d="M94.6436 43.8329C94.8706 42.5383 95.3673 40.9975 96.1382 39.3241C97.2229 36.9694 98.8019 34.4582 100.757 32.1608C104.705 27.5211 109.963 24 115.549 24C121.133 24 126.366 27.5193 130.289 32.1574C132.232 34.4542 133.799 36.9651 134.875 39.32C135.64 40.9941 136.133 42.5364 136.358 43.8329H136.322H136.284H136.246H136.208H136.17H136.132H136.094H136.056H136.018H135.981H135.943H135.906H135.868H135.831H135.793H135.756H135.719H135.682H135.645H135.607H135.57H135.534H135.497H135.46H135.423H135.386H135.35H135.313H135.277H135.24H135.204H135.167H135.131H135.095H135.058H135.022H134.986H134.95H134.914H134.878H134.842H134.806H134.77H134.735H134.699H134.663H134.628H134.592H134.556H134.521H134.485H134.45H134.414H134.379H134.344H134.308H134.273H134.238H134.203H134.168H134.133H134.097H134.062H134.027H133.992H133.957H133.923H133.888H133.853H133.818H133.783H133.748H133.714H133.679H133.644H133.61H133.575H133.54H133.506H133.471H133.437H133.402H133.368H133.333H133.299H133.264H133.23H133.195H133.161H133.127H133.092H133.058H133.024H132.989H132.955H132.921H132.886H132.852H132.818H132.784H132.749H132.715H132.681H132.647H132.613H132.578H132.544H132.51H132.476H132.442H132.408H132.373H132.339H132.305H132.271H132.237H132.203H132.169H132.134H132.1H132.066H132.032H131.998H131.964H131.93H131.895H131.861H131.827H131.793H131.759H131.724H131.69H131.656H131.622H131.587H131.553H131.519H131.485H131.45H131.416H131.382H131.347H131.313H131.279H131.244H131.21H131.176H131.141H131.107H131.072H131.038H131.003H130.969H130.934H130.899H130.865H130.83H130.796H130.761H130.726H130.691H130.657H130.622H130.587H130.552H130.517H130.482H130.447H130.413H130.378H130.342H130.307H130.272H130.237H130.202H130.167H130.132H130.096H130.061H130.026H129.99H129.955H129.919H129.884H129.848H129.813H129.777H129.741H129.706H129.67H129.634H129.598H129.562H129.526H129.49H129.454H129.418H129.382H129.346H129.309H129.273H129.237H129.2H129.164H129.127H129.091H129.054H129.017H128.981H128.944H128.907H128.87H128.833H128.796H128.759H128.722H128.685H128.647H128.61H128.573H128.535H128.498H128.46H128.422H128.385H128.347H128.309H128.271H128.233H128.195H128.157H128.119H128.08H128.042H128.004H127.965H127.927H127.888H127.849H127.81H127.772H127.733H127.694H127.655H127.615H127.576H127.537H127.497H127.458H127.418H127.379H127.339H127.299H127.259H127.219H127.179H127.139H127.099H127.058H127.018H126.977H126.937H126.896H126.855H126.814H126.773H126.732H126.691H126.65H126.609H126.567H126.526H126.484H126.442H126.401H126.359H126.317H126.274H126.232H126.19H126.148H126.105H126.062H126.02H125.977H125.934H125.891H125.848H125.805H125.761H125.718H125.674H125.631H125.587H125.543H125.499H125.455H125.411H125.366H125.322H125.277H125.233H125.188H125.143H125.098H125.053H125.008H124.962H124.917H124.871H124.825H124.78H124.734H124.688H124.641H124.595H124.549H124.502H124.455H124.409H124.362H124.315H124.267H124.22H124.173H124.125H124.077H124.029H123.982H123.933H123.885H123.837H123.788H123.74H123.691H123.642H123.593H123.544H123.495H123.445H123.396H123.346H123.296H123.246H123.196H123.146H123.095H123.045H122.994H122.943H122.892H122.841H122.79H122.738H122.687H122.635H122.583H122.531H122.479H122.427H122.374H122.322H122.269H122.216H122.163H122.11H122.056H122.003H121.949H121.895H121.841H121.787H121.733H121.678H121.624H121.569H121.514H121.459H121.404H121.348H121.293H121.237H121.181H121.125H121.069H121.012H120.956H120.899H120.842H120.785H120.728H120.67H120.613H120.555H120.497H120.439H120.381H120.322H120.264H120.205H120.146H120.087H120.028H119.968H119.909H119.849H119.789H119.729H119.668H119.608H119.547H119.486H119.425H119.364H119.302H119.24H119.179H119.117H119.054H118.992H118.929H118.867H118.804H118.741H118.677H118.614H118.55H118.486H118.422H118.358H118.293H118.229H118.164H118.099H118.033H117.968H117.902H117.836H117.77H117.704H117.638H117.571H117.504H117.437H117.37H117.303H117.235H117.167H117.099H117.031H116.962H116.894H116.825H116.756H116.686H116.617H116.547H116.477H116.407H116.337H116.266H116.195H116.124H116.053H115.982H115.91H115.838H115.766H115.694H115.622H115.549H115.476H115.404H115.331H115.259H115.188H115.116H115.045H114.974H114.903H114.832H114.762H114.691H114.621H114.552H114.482H114.413H114.344H114.275H114.206H114.137H114.069H114.001H113.933H113.866H113.798H113.731H113.664H113.597H113.531H113.464H113.398H113.332H113.267H113.201H113.136H113.071H113.006H112.941H112.876H112.812H112.748H112.684H112.62H112.557H112.493H112.43H112.367H112.305H112.242H112.18H112.118H112.056H111.994H111.932H111.871H111.81H111.749H111.688H111.628H111.567H111.507H111.447H111.387H111.327H111.268H111.209H111.149H111.091H111.032H110.973H110.915H110.857H110.799H110.741H110.683H110.626H110.568H110.511H110.454H110.397H110.341H110.284H110.228H110.172H110.116H110.06H110.005H109.949H109.894H109.839H109.784H109.729H109.675H109.62H109.566H109.512H109.458H109.404H109.351H109.297H109.244H109.191H109.138H109.085H109.032H108.98H108.928H108.875H108.823H108.772H108.72H108.668H108.617H108.566H108.515H108.464H108.413H108.362H108.312H108.261H108.211H108.161H108.111H108.061H108.012H107.962H107.913H107.864H107.815H107.766H107.717H107.668H107.62H107.571H107.523H107.475H107.427H107.379H107.332H107.284H107.237H107.189H107.142H107.095H107.048H107.002H106.955H106.908H106.862H106.816H106.77H106.724H106.678H106.632H106.586H106.541H106.496H106.45H106.405H106.36H106.315H106.271H106.226H106.181H106.137H106.093H106.048H106.004H105.96H105.917H105.873H105.829H105.786H105.742H105.699H105.656H105.613H105.57H105.527H105.484H105.441H105.399H105.357H105.314H105.272H105.23H105.188H105.146H105.104H105.062H105.021H104.979H104.938H104.896H104.855H104.814H104.773H104.732H104.691H104.651H104.61H104.569H104.529H104.488H104.448H104.408H104.368H104.328H104.288H104.248H104.208H104.168H104.129H104.089H104.05H104.01H103.971H103.932H103.893H103.854H103.815H103.776H103.737H103.698H103.66H103.621H103.583H103.544H103.506H103.468H103.429H103.391H103.353H103.315H103.277H103.239H103.202H103.164H103.126H103.089H103.051H103.014H102.976H102.939H102.902H102.865H102.827H102.79H102.753H102.716H102.679H102.642H102.606H102.569H102.532H102.496H102.459H102.423H102.386H102.35H102.313H102.277H102.241H102.204H102.168H102.132H102.096H102.06H102.024H101.988H101.952H101.916H101.881H101.845H101.809H101.774H101.738H101.702H101.667H101.631H101.596H101.56H101.525H101.49H101.454H101.419H101.384H101.348H101.313H101.278H101.243H101.208H101.173H101.138H101.103H101.068H101.033H100.998H100.963H100.928H100.893H100.858H100.823H100.789H100.754H100.719H100.684H100.65H100.615H100.58H100.546H100.511H100.476H100.442H100.407H100.373H100.338H100.303H100.269H100.234H100.2H100.165H100.131H100.096H100.062H100.027H99.993H99.9585H99.924H99.8896H99.8551H99.8207H99.7862H99.7518H99.7174H99.6829H99.6485H99.614H99.5796H99.5451H99.5107H99.4762H99.4418H99.4073H99.3729H99.3384H99.3039H99.2694H99.2349H99.2004H99.1659H99.1314H99.0969H99.0623H99.0277H98.9932H98.9586H98.924H98.8894H98.8547H98.8201H98.7854H98.7507H98.716H98.6813H98.6466H98.6118H98.577H98.5422H98.5074H98.4725H98.4377H98.4028H98.3678H98.3329H98.2979H98.2629H98.2279H98.1928H98.1577H98.1226H98.0874H98.0522H98.017H97.9818H97.9465H97.9112H97.8758H97.8404H97.805H97.7696H97.7341H97.6985H97.6629H97.6273H97.5917H97.556H97.5202H97.4845H97.4486H97.4128H97.3768H97.3409H97.3049H97.2688H97.2327H97.1966H97.1604H97.1242H97.0879H97.0515H97.0151H96.9787H96.9422H96.9056H96.869H96.8324H96.7956H96.7589H96.722H96.6852H96.6482H96.6112H96.5742H96.537H96.4998H96.4626H96.4253H96.3879H96.3505H96.313H96.2754H96.2378H96.2001H96.1623H96.1245H96.0866H96.0487H96.0106H95.9725H95.9343H95.8961H95.8578H95.8194H95.7809H95.7424H95.7038H95.6651H95.6263H95.5874H95.5485H95.5095H95.4704H95.4313H95.392H95.3527H95.3133H95.2738H95.2342H95.1946H95.1549H95.115H95.0751H95.0351H94.995H94.9549H94.9146H94.8742H94.8338H94.7933H94.7527H94.7119H94.6711H94.6436Z" stroke="white" stroke-width="3"/>
</svg>
