<svg width="118" height="36" viewBox="0 0 118 36" fill="none" xmlns="http://www.w3.org/2000/svg">
<path d="M84 26.5H82.5V29.5H84V26.5ZM84 29.5H114V26.5H84V29.5Z" fill="#5D554A"/>
<path d="M83 6.5H81.5V9.5H83V6.5ZM83 9.5H112V6.5H83V9.5Z" fill="#5D554A"/>
<path d="M90 16.5H88.5V19.5H90V16.5ZM90 19.5H118V16.5H90V19.5Z" fill="#5D554A"/>
<path d="M18.816 9.392V26H16.632V13.616L11.112 26H9.576L4.032 13.592V26H1.848V9.392H4.2L10.344 23.12L16.488 9.392H18.816ZM24.7039 11.048V16.64H30.7999V18.44H24.7039V24.2H31.5199V26H22.5199V9.248H31.5199V11.048H24.7039ZM47.9766 26H45.7926L37.0086 12.68V26H34.8246V9.248H37.0086L45.7926 22.544V9.248H47.9766V26ZM53.8356 9.272V19.856C53.8356 21.344 54.1956 22.448 54.9156 23.168C55.6516 23.888 56.6676 24.248 57.9636 24.248C59.2436 24.248 60.2436 23.888 60.9636 23.168C61.6996 22.448 62.0676 21.344 62.0676 19.856V9.272H64.2516V19.832C64.2516 21.224 63.9716 22.4 63.4116 23.36C62.8516 24.304 62.0916 25.008 61.1316 25.472C60.1876 25.936 59.1236 26.168 57.9396 26.168C56.7556 26.168 55.6836 25.936 54.7236 25.472C53.7796 25.008 53.0276 24.304 52.4676 23.36C51.9236 22.4 51.6516 21.224 51.6516 19.832V9.272H53.8356Z" fill="#5D554A"/>
</svg>
