<svg width="242" height="90" viewBox="0 0 242 90" fill="none" xmlns="http://www.w3.org/2000/svg">
<rect width="242" height="90" fill="#204A78"/>
<path d="M64.688 36.512V53H63.608V38.768L57.272 53H56.408L50.048 38.768V53H48.968V36.512H50.12L56.84 51.584L63.56 36.512H64.688ZM69.2075 37.064C68.9515 37.064 68.7355 36.984 68.5595 36.824C68.3835 36.648 68.2955 36.416 68.2955 36.128C68.2955 35.856 68.3835 35.632 68.5595 35.456C68.7355 35.28 68.9515 35.192 69.2075 35.192C69.4635 35.192 69.6795 35.28 69.8555 35.456C70.0315 35.632 70.1195 35.856 70.1195 36.128C70.1195 36.416 70.0315 36.648 69.8555 36.824C69.6795 36.984 69.4635 37.064 69.2075 37.064ZM69.7355 39.968V53H68.6555V39.968H69.7355ZM75.3026 40.904V49.52C75.3026 50.48 75.4786 51.144 75.8306 51.512C76.1826 51.864 76.8066 52.04 77.7026 52.04H79.1666V53H77.5346C76.3986 53 75.5586 52.736 75.0146 52.208C74.4866 51.664 74.2226 50.768 74.2226 49.52V40.904H72.2546V39.968H74.2226V36.656H75.3026V39.968H79.1666V40.904H75.3026ZM88.1163 44.6C88.1163 42.936 88.4603 41.456 89.1483 40.16C89.8523 38.848 90.8123 37.824 92.0283 37.088C93.2603 36.352 94.6363 35.984 96.1563 35.984C98.0763 35.984 99.6923 36.432 101.004 37.328C102.316 38.224 103.276 39.48 103.884 41.096H102.636C102.156 39.816 101.356 38.808 100.236 38.072C99.1323 37.32 97.7723 36.944 96.1563 36.944C94.8603 36.944 93.6843 37.256 92.6283 37.88C91.5723 38.488 90.7403 39.376 90.1323 40.544C89.5243 41.696 89.2203 43.048 89.2203 44.6C89.2203 46.136 89.5243 47.48 90.1323 48.632C90.7403 49.768 91.5723 50.648 92.6283 51.272C93.6843 51.896 94.8603 52.208 96.1563 52.208C97.7723 52.208 99.1323 51.84 100.236 51.104C101.356 50.352 102.156 49.336 102.636 48.056H103.884C103.276 49.672 102.316 50.928 101.004 51.824C99.6923 52.72 98.0763 53.168 96.1563 53.168C94.6363 53.168 93.2603 52.808 92.0283 52.088C90.8123 51.352 89.8523 50.336 89.1483 49.04C88.4603 47.728 88.1163 46.248 88.1163 44.6ZM116.809 48.68H108.817L107.209 53H106.033L112.225 36.536H113.425L119.593 53H118.417L116.809 48.68ZM116.473 47.768L112.825 37.952L109.153 47.768H116.473Z" fill="white"/>
<circle cx="162.5" cy="34.0732" r="10.5732" stroke="white" stroke-width="3"/>
<path d="M141.644 65.8329C141.871 64.5383 142.367 62.9975 143.138 61.3241C144.223 58.9694 145.802 56.4582 147.757 54.1608C151.705 49.5211 156.963 46 162.549 46C168.133 46 173.366 49.5193 177.289 54.1574C179.232 56.4542 180.799 58.9651 181.875 61.32C182.64 62.9941 183.133 64.5364 183.358 65.8329H183.322H183.284H183.246H183.208H183.17H183.132H183.094H183.056H183.018H182.981H182.943H182.906H182.868H182.831H182.793H182.756H182.719H182.682H182.645H182.607H182.57H182.534H182.497H182.46H182.423H182.386H182.35H182.313H182.277H182.24H182.204H182.167H182.131H182.095H182.058H182.022H181.986H181.95H181.914H181.878H181.842H181.806H181.77H181.735H181.699H181.663H181.628H181.592H181.556H181.521H181.485H181.45H181.414H181.379H181.344H181.308H181.273H181.238H181.203H181.168H181.133H181.097H181.062H181.027H180.992H180.957H180.923H180.888H180.853H180.818H180.783H180.748H180.714H180.679H180.644H180.61H180.575H180.54H180.506H180.471H180.437H180.402H180.368H180.333H180.299H180.264H180.23H180.195H180.161H180.127H180.092H180.058H180.024H179.989H179.955H179.921H179.886H179.852H179.818H179.784H179.749H179.715H179.681H179.647H179.613H179.578H179.544H179.51H179.476H179.442H179.408H179.373H179.339H179.305H179.271H179.237H179.203H179.169H179.134H179.1H179.066H179.032H178.998H178.964H178.93H178.895H178.861H178.827H178.793H178.759H178.724H178.69H178.656H178.622H178.587H178.553H178.519H178.485H178.45H178.416H178.382H178.347H178.313H178.279H178.244H178.21H178.176H178.141H178.107H178.072H178.038H178.003H177.969H177.934H177.899H177.865H177.83H177.796H177.761H177.726H177.691H177.657H177.622H177.587H177.552H177.517H177.482H177.447H177.413H177.378H177.342H177.307H177.272H177.237H177.202H177.167H177.132H177.096H177.061H177.026H176.99H176.955H176.919H176.884H176.848H176.813H176.777H176.741H176.706H176.67H176.634H176.598H176.562H176.526H176.49H176.454H176.418H176.382H176.346H176.309H176.273H176.237H176.2H176.164H176.127H176.091H176.054H176.017H175.981H175.944H175.907H175.87H175.833H175.796H175.759H175.722H175.685H175.647H175.61H175.573H175.535H175.498H175.46H175.422H175.385H175.347H175.309H175.271H175.233H175.195H175.157H175.119H175.08H175.042H175.004H174.965H174.927H174.888H174.849H174.81H174.772H174.733H174.694H174.655H174.615H174.576H174.537H174.497H174.458H174.418H174.379H174.339H174.299H174.259H174.219H174.179H174.139H174.099H174.058H174.018H173.977H173.937H173.896H173.855H173.814H173.773H173.732H173.691H173.65H173.609H173.567H173.526H173.484H173.442H173.401H173.359H173.317H173.274H173.232H173.19H173.148H173.105H173.062H173.02H172.977H172.934H172.891H172.848H172.805H172.761H172.718H172.674H172.631H172.587H172.543H172.499H172.455H172.411H172.366H172.322H172.277H172.233H172.188H172.143H172.098H172.053H172.008H171.962H171.917H171.871H171.825H171.78H171.734H171.688H171.641H171.595H171.549H171.502H171.455H171.409H171.362H171.315H171.267H171.22H171.173H171.125H171.077H171.029H170.982H170.933H170.885H170.837H170.788H170.74H170.691H170.642H170.593H170.544H170.495H170.445H170.396H170.346H170.296H170.246H170.196H170.146H170.095H170.045H169.994H169.943H169.892H169.841H169.79H169.738H169.687H169.635H169.583H169.531H169.479H169.427H169.374H169.322H169.269H169.216H169.163H169.11H169.056H169.003H168.949H168.895H168.841H168.787H168.733H168.678H168.624H168.569H168.514H168.459H168.404H168.348H168.293H168.237H168.181H168.125H168.069H168.012H167.956H167.899H167.842H167.785H167.728H167.67H167.613H167.555H167.497H167.439H167.381H167.322H167.264H167.205H167.146H167.087H167.028H166.968H166.909H166.849H166.789H166.729H166.668H166.608H166.547H166.486H166.425H166.364H166.302H166.24H166.179H166.117H166.054H165.992H165.929H165.867H165.804H165.741H165.677H165.614H165.55H165.486H165.422H165.358H165.293H165.229H165.164H165.099H165.033H164.968H164.902H164.836H164.77H164.704H164.638H164.571H164.504H164.437H164.37H164.303H164.235H164.167H164.099H164.031H163.962H163.894H163.825H163.756H163.686H163.617H163.547H163.477H163.407H163.337H163.266H163.195H163.124H163.053H162.982H162.91H162.838H162.766H162.694H162.622H162.549H162.476H162.404H162.331H162.259H162.188H162.116H162.045H161.974H161.903H161.832H161.762H161.691H161.621H161.552H161.482H161.413H161.344H161.275H161.206H161.137H161.069H161.001H160.933H160.866H160.798H160.731H160.664H160.597H160.531H160.464H160.398H160.332H160.267H160.201H160.136H160.071H160.006H159.941H159.876H159.812H159.748H159.684H159.62H159.557H159.493H159.43H159.367H159.305H159.242H159.18H159.118H159.056H158.994H158.932H158.871H158.81H158.749H158.688H158.628H158.567H158.507H158.447H158.387H158.327H158.268H158.209H158.149H158.091H158.032H157.973H157.915H157.857H157.799H157.741H157.683H157.626H157.568H157.511H157.454H157.397H157.341H157.284H157.228H157.172H157.116H157.06H157.005H156.949H156.894H156.839H156.784H156.729H156.675H156.62H156.566H156.512H156.458H156.404H156.351H156.297H156.244H156.191H156.138H156.085H156.032H155.98H155.928H155.875H155.823H155.772H155.72H155.668H155.617H155.566H155.515H155.464H155.413H155.362H155.312H155.261H155.211H155.161H155.111H155.061H155.012H154.962H154.913H154.864H154.815H154.766H154.717H154.668H154.62H154.571H154.523H154.475H154.427H154.379H154.332H154.284H154.237H154.189H154.142H154.095H154.048H154.002H153.955H153.908H153.862H153.816H153.77H153.724H153.678H153.632H153.586H153.541H153.496H153.45H153.405H153.36H153.315H153.271H153.226H153.181H153.137H153.093H153.048H153.004H152.96H152.917H152.873H152.829H152.786H152.742H152.699H152.656H152.613H152.57H152.527H152.484H152.441H152.399H152.357H152.314H152.272H152.23H152.188H152.146H152.104H152.062H152.021H151.979H151.938H151.896H151.855H151.814H151.773H151.732H151.691H151.651H151.61H151.569H151.529H151.488H151.448H151.408H151.368H151.328H151.288H151.248H151.208H151.168H151.129H151.089H151.05H151.01H150.971H150.932H150.893H150.854H150.815H150.776H150.737H150.698H150.66H150.621H150.583H150.544H150.506H150.468H150.429H150.391H150.353H150.315H150.277H150.239H150.202H150.164H150.126H150.089H150.051H150.014H149.976H149.939H149.902H149.865H149.827H149.79H149.753H149.716H149.679H149.642H149.606H149.569H149.532H149.496H149.459H149.423H149.386H149.35H149.313H149.277H149.241H149.204H149.168H149.132H149.096H149.06H149.024H148.988H148.952H148.916H148.881H148.845H148.809H148.774H148.738H148.702H148.667H148.631H148.596H148.56H148.525H148.49H148.454H148.419H148.384H148.348H148.313H148.278H148.243H148.208H148.173H148.138H148.103H148.068H148.033H147.998H147.963H147.928H147.893H147.858H147.823H147.789H147.754H147.719H147.684H147.65H147.615H147.58H147.546H147.511H147.476H147.442H147.407H147.373H147.338H147.303H147.269H147.234H147.2H147.165H147.131H147.096H147.062H147.027H146.993H146.958H146.924H146.89H146.855H146.821H146.786H146.752H146.717H146.683H146.648H146.614H146.58H146.545H146.511H146.476H146.442H146.407H146.373H146.338H146.304H146.269H146.235H146.2H146.166H146.131H146.097H146.062H146.028H145.993H145.959H145.924H145.889H145.855H145.82H145.785H145.751H145.716H145.681H145.647H145.612H145.577H145.542H145.507H145.473H145.438H145.403H145.368H145.333H145.298H145.263H145.228H145.193H145.158H145.123H145.087H145.052H145.017H144.982H144.946H144.911H144.876H144.84H144.805H144.77H144.734H144.699H144.663H144.627H144.592H144.556H144.52H144.484H144.449H144.413H144.377H144.341H144.305H144.269H144.233H144.197H144.16H144.124H144.088H144.052H144.015H143.979H143.942H143.906H143.869H143.832H143.796H143.759H143.722H143.685H143.648H143.611H143.574H143.537H143.5H143.463H143.425H143.388H143.35H143.313H143.275H143.238H143.2H143.162H143.125H143.087H143.049H143.011H142.973H142.934H142.896H142.858H142.819H142.781H142.742H142.704H142.665H142.626H142.587H142.549H142.51H142.47H142.431H142.392H142.353H142.313H142.274H142.234H142.195H142.155H142.115H142.075H142.035H141.995H141.955H141.915H141.874H141.834H141.793H141.753H141.712H141.671H141.644Z" stroke="white" stroke-width="3"/>
</svg>
