<svg width="351" height="38" viewBox="0 0 351 38" fill="none" xmlns="http://www.w3.org/2000/svg">
<path d="M261.828 10.7762L264.532 10.4902V14.2082H268.276V16.5222H264.506V22.6322C264.506 24.0362 265.104 24.7382 266.352 24.7382C266.846 24.7382 267.392 24.6082 267.99 24.2962L268.77 26.5842C267.886 26.9742 267.028 27.1562 266.196 27.1562C264.792 27.2082 263.7 26.8442 262.946 26.0642C262.192 25.2842 261.828 24.1402 261.828 22.6322V16.5222H259.358V14.2082H261.828V10.7762Z" fill="black"/>
<path d="M257.667 21.5927H247.267C247.371 22.5807 247.813 23.3607 248.567 23.9327C249.321 24.5307 250.283 24.8167 251.453 24.8167C252.129 24.8167 252.831 24.7127 253.533 24.4527C254.235 24.1927 254.781 23.8547 255.171 23.4387L256.913 25.1287C256.263 25.8307 255.431 26.3767 254.443 26.7407C253.455 27.1307 252.441 27.3127 251.401 27.3127C249.295 27.3127 247.605 26.7147 246.357 25.4667C245.109 24.2447 244.485 22.6067 244.485 20.5267C244.485 18.5767 245.109 16.9647 246.357 15.7167C247.605 14.4687 249.217 13.8447 251.219 13.8447C253.351 13.8447 255.041 14.5207 256.237 15.8207C257.433 17.1467 257.901 19.0707 257.667 21.5927ZM247.319 19.3307H255.093C255.015 18.3427 254.625 17.5887 253.949 17.0427C253.273 16.5227 252.389 16.2367 251.297 16.2367C250.283 16.2367 249.425 16.5227 248.697 17.0427C247.969 17.5887 247.527 18.3427 247.319 19.3307Z" fill="black"/>
<path d="M240.538 14.1562H243.476L238.042 27.0523H235.104L229.644 14.1562H232.608L234.324 18.2903L236.586 24.2443L238.614 18.8103L240.538 14.1562Z" fill="black"/>
<path d="M228.671 21.5927H218.271C218.375 22.5807 218.817 23.3607 219.571 23.9327C220.325 24.5307 221.287 24.8167 222.457 24.8167C223.133 24.8167 223.835 24.7127 224.537 24.4527C225.239 24.1927 225.785 23.8547 226.175 23.4387L227.917 25.1287C227.267 25.8307 226.435 26.3767 225.447 26.7407C224.459 27.1307 223.445 27.3127 222.405 27.3127C220.299 27.3127 218.609 26.7147 217.361 25.4667C216.113 24.2447 215.489 22.6067 215.489 20.5267C215.489 18.5767 216.113 16.9647 217.361 15.7167C218.609 14.4687 220.221 13.8447 222.223 13.8447C224.355 13.8447 226.045 14.5207 227.241 15.8207C228.437 17.1467 228.905 19.0707 228.671 21.5927ZM218.323 19.3307H226.097C226.019 18.3427 225.629 17.5887 224.953 17.0427C224.277 16.5227 223.393 16.2367 222.301 16.2367C221.287 16.2367 220.429 16.5227 219.701 17.0427C218.973 17.5887 218.531 18.3427 218.323 19.3307Z" fill="black"/>
<path d="M205.173 14.1825H207.669L207.851 15.8725C208.579 14.5725 209.853 13.8965 211.621 13.8965C212.921 13.8965 213.961 14.2605 214.793 14.9885L213.571 17.3285C212.921 16.8085 212.167 16.5485 211.309 16.5485C210.321 16.5485 209.489 16.8605 208.839 17.4585C208.163 18.0825 207.851 18.9405 207.851 20.0585V27.0005H205.173V14.1825Z" fill="black"/>
<path d="M195.586 16.4182C194.442 16.4182 193.454 16.8082 192.674 17.5882C191.868 18.3682 191.478 19.3822 191.478 20.5782C191.478 21.8262 191.868 22.8142 192.648 23.5942C193.428 24.3742 194.416 24.7642 195.586 24.7642C196.73 24.7642 197.692 24.4002 198.472 23.6202C199.252 22.8402 199.642 21.8262 199.642 20.5782C199.642 19.3042 199.252 18.2902 198.472 17.5362C197.692 16.8082 196.73 16.4182 195.586 16.4182ZM188.644 8.82617H191.322V16.1842C191.712 15.4822 192.336 14.9362 193.22 14.5202C194.104 14.1042 194.962 13.8962 195.82 13.8962C197.718 13.8962 199.278 14.4942 200.5 15.6642C201.696 16.8342 202.32 18.4722 202.32 20.5782C202.32 22.6582 201.696 24.2702 200.474 25.4662C199.226 26.6622 197.666 27.2602 195.768 27.2602C193.74 27.2602 192.258 26.5062 191.322 24.9722L191.166 27.0002H188.644V8.82617Z" fill="black"/>
<path d="M185.367 15.5607L183.859 17.3287C182.975 16.5487 181.857 16.1327 180.479 16.1327C179.647 16.1327 178.971 16.2627 178.477 16.5227C177.983 16.7827 177.749 17.1727 177.749 17.6667C177.749 18.6027 178.685 19.1487 180.531 19.3047C181.259 19.3827 181.883 19.4867 182.403 19.5907C182.923 19.6947 183.495 19.9027 184.093 20.1627C184.691 20.4227 185.159 20.8387 185.471 21.3587C185.783 21.9047 185.965 22.5547 185.965 23.3347C185.939 24.5567 185.445 25.5447 184.457 26.2727C183.469 27.0267 182.143 27.3907 180.505 27.3907C178.009 27.3907 176.059 26.6107 174.655 25.0247L176.059 23.1267C177.151 24.3747 178.659 24.9987 180.557 25.0247C181.285 25.0247 181.909 24.8947 182.455 24.6087C182.975 24.3487 183.261 23.9327 183.287 23.3607C183.287 22.8147 183.053 22.3987 182.559 22.1387C182.065 21.8787 181.311 21.6967 180.323 21.5927C176.839 21.2807 175.097 19.9807 175.097 17.7447C175.097 16.4447 175.617 15.4827 176.709 14.8327C177.801 14.1827 179.023 13.8447 180.427 13.8447C182.429 13.8447 184.067 14.4167 185.367 15.5607Z" fill="black"/>
<path d="M165.094 16.4182C163.924 16.4182 162.962 16.8082 162.182 17.5362C161.402 18.2902 161.038 19.3042 161.038 20.5782C161.038 21.8522 161.402 22.8662 162.182 23.6202C162.962 24.4002 163.924 24.7642 165.094 24.7642C166.238 24.7642 167.2 24.3742 167.98 23.5942C168.76 22.8142 169.176 21.8262 169.176 20.5782C169.176 19.3822 168.76 18.3682 167.98 17.5882C167.2 16.8082 166.238 16.4182 165.094 16.4182ZM169.358 8.82617H172.036V27.0002H169.514L169.358 24.9722C168.422 26.5062 166.94 27.2602 164.912 27.2602C162.988 27.2602 161.428 26.6622 160.206 25.4662C158.958 24.2702 158.36 22.6582 158.36 20.5782C158.36 18.4722 158.958 16.8342 160.154 15.6642C161.35 14.4942 162.936 13.8962 164.86 13.8962C165.692 13.8962 166.55 14.1042 167.434 14.5202C168.318 14.9362 168.942 15.4822 169.358 16.1842V8.82617Z" fill="black"/>
<path d="M156.41 21.5927H146.01C146.114 22.5807 146.556 23.3607 147.31 23.9327C148.064 24.5307 149.026 24.8167 150.196 24.8167C150.872 24.8167 151.574 24.7127 152.276 24.4527C152.978 24.1927 153.524 23.8547 153.914 23.4387L155.656 25.1287C155.006 25.8307 154.174 26.3767 153.186 26.7407C152.198 27.1307 151.184 27.3127 150.144 27.3127C148.038 27.3127 146.348 26.7147 145.1 25.4667C143.852 24.2447 143.228 22.6067 143.228 20.5267C143.228 18.5767 143.852 16.9647 145.1 15.7167C146.348 14.4687 147.96 13.8447 149.962 13.8447C152.094 13.8447 153.784 14.5207 154.98 15.8207C156.176 17.1467 156.644 19.0707 156.41 21.5927ZM146.062 19.3307H153.836C153.758 18.3427 153.368 17.5887 152.692 17.0427C152.016 16.5227 151.132 16.2367 150.04 16.2367C149.026 16.2367 148.168 16.5227 147.44 17.0427C146.712 17.5887 146.27 18.3427 146.062 19.3307Z" fill="black"/>
<path d="M128.443 8.80078H131.121V16.0808C132.109 14.7028 133.487 14.0008 135.281 14.0008C137.023 14.0008 138.349 14.5468 139.233 15.6388C140.117 16.7308 140.559 18.2128 140.559 20.0848V27.0008H137.881V20.1108C137.881 18.9408 137.595 18.0568 137.023 17.4328C136.451 16.8088 135.645 16.4968 134.657 16.4968C133.617 16.4968 132.785 16.8868 132.109 17.6148C131.433 18.3428 131.121 19.2528 131.121 20.3188V27.0008H128.443V8.80078Z" fill="black"/>
<path d="M123.227 14.1826H126.217L118.131 32.9546H115.167L117.819 26.8186L112.697 14.1826H115.817L118.027 20.2406L119.301 23.8806L120.679 20.2926L123.227 14.1826Z" fill="black"/>
<path d="M111.113 27.0006H108.409V20.1366C108.409 19.0186 108.097 18.1346 107.499 17.4586C106.875 16.7826 106.043 16.4446 104.951 16.4446C103.911 16.4446 103.053 16.8346 102.377 17.5626C101.701 18.3166 101.363 19.2266 101.363 20.2926V27.0006H98.6851V14.1566H101.129L101.285 16.0286C102.481 14.6766 103.937 13.9746 105.601 13.9746C107.213 13.9746 108.513 14.5206 109.553 15.6126C110.593 16.7046 111.113 18.2126 111.113 20.1106V27.0006Z" fill="black"/>
<path d="M81.6354 16.4182C80.4654 16.4182 79.5034 16.8082 78.7234 17.5362C77.9434 18.2902 77.5794 19.3042 77.5794 20.5782C77.5794 21.8522 77.9434 22.8662 78.7234 23.6202C79.5034 24.4002 80.4654 24.7642 81.6354 24.7642C82.7794 24.7642 83.7414 24.3742 84.5214 23.5942C85.3014 22.8142 85.7174 21.8262 85.7174 20.5782C85.7174 19.3822 85.3014 18.3682 84.5214 17.5882C83.7414 16.8082 82.7794 16.4182 81.6354 16.4182ZM85.8994 8.82617H88.5774V27.0002H86.0554L85.8994 24.9722C84.9634 26.5062 83.4814 27.2602 81.4534 27.2602C79.5294 27.2602 77.9694 26.6622 76.7474 25.4662C75.4994 24.2702 74.9014 22.6582 74.9014 20.5782C74.9014 18.4722 75.4994 16.8342 76.6954 15.6642C77.8914 14.4942 79.4774 13.8962 81.4014 13.8962C82.2334 13.8962 83.0914 14.1042 83.9754 14.5202C84.8594 14.9362 85.4834 15.4822 85.8994 16.1842V8.82617Z" fill="black"/>
<path d="M69.2598 8.82617H71.9378V27.0002H69.2598V8.82617Z" fill="black"/>
<path d="M66.4252 21.5927H56.0252C56.1292 22.5807 56.5712 23.3607 57.3252 23.9327C58.0792 24.5307 59.0412 24.8167 60.2112 24.8167C60.8872 24.8167 61.5892 24.7127 62.2912 24.4527C62.9932 24.1927 63.5392 23.8547 63.9292 23.4387L65.6712 25.1287C65.0212 25.8307 64.1892 26.3767 63.2012 26.7407C62.2132 27.1307 61.1992 27.3127 60.1592 27.3127C58.0532 27.3127 56.3632 26.7147 55.1152 25.4667C53.8672 24.2447 53.2432 22.6067 53.2432 20.5267C53.2432 18.5767 53.8672 16.9647 55.1152 15.7167C56.3632 14.4687 57.9752 13.8447 59.9772 13.8447C62.1092 13.8447 63.7992 14.5207 64.9952 15.8207C66.1912 17.1467 66.6592 19.0707 66.4252 21.5927ZM56.0772 19.3307H63.8512C63.7732 18.3427 63.3832 17.5887 62.7072 17.0427C62.0312 16.5227 61.1472 16.2367 60.0552 16.2367C59.0412 16.2367 58.1832 16.5227 57.4552 17.0427C56.7272 17.5887 56.2852 18.3427 56.0772 19.3307Z" fill="black"/>
<path d="M41.9011 27.0012H39.1971V19.9552C39.1971 18.9672 38.9111 18.1612 38.3911 17.4852C37.8451 16.8092 37.1171 16.4712 36.2071 16.4712C35.2711 16.4712 34.5431 16.8092 33.9711 17.4852C33.3991 18.1612 33.1131 18.9932 33.1131 19.9552V27.0012H30.4351V14.1572H32.9311L33.1131 15.8732C33.4511 15.2232 33.9451 14.7292 34.5951 14.4172C35.2451 14.1052 35.9471 13.9492 36.7011 13.9492C38.7291 13.9492 40.0551 14.8072 40.7311 16.5232C41.6671 14.8332 43.1231 13.9752 45.1251 13.9752C46.8671 13.9752 48.2191 14.4952 49.1551 15.5352C50.0911 16.5752 50.5591 18.0312 50.5591 19.9032V27.0012H47.8551V19.9032C47.8551 18.9152 47.5951 18.0832 47.1271 17.4592C46.6331 16.8352 45.9311 16.4972 45.0211 16.4972C44.0851 16.4972 43.3311 16.8352 42.7591 17.5112C42.1871 18.1872 41.9011 18.9932 41.9011 19.9552V27.0012Z" fill="black"/>
<path d="M24.0137 8.82617H26.6917V27.0002H24.0137V8.82617Z" fill="black"/>
<path d="M20.2654 14.1307V27.0007H17.5874V14.1307H20.2654ZM17.2754 10.4127C17.2754 11.1147 17.5354 11.6087 18.1074 11.8947C18.6534 12.1807 19.1994 12.1807 19.7714 11.8947C20.3174 11.6087 20.6034 11.1147 20.6034 10.4127C20.6034 9.73672 20.3174 9.24272 19.7714 8.95672C19.1994 8.69672 18.6534 8.69672 18.1074 8.95672C17.5354 9.24272 17.2754 9.73672 17.2754 10.4127Z" fill="black"/>
<path d="M6.4219 27.0008V11.4268H0.441895V8.80078H15.3139V11.4268H9.35989V27.0008H6.4219Z" fill="black"/>
<path fill-rule="evenodd" clip-rule="evenodd" d="M333.858 1.32207L349.768 17.232C350.744 18.2083 350.744 19.7912 349.768 20.7675L333.858 36.6774C332.882 37.6537 331.299 37.6537 330.322 36.6774C329.346 35.7011 329.346 34.1182 330.322 33.1419L341.964 21.4997L296 21.4997L296 16.4997L341.964 16.4997L330.322 4.85761C329.346 3.8813 329.346 2.29838 330.322 1.32207C331.299 0.345763 332.882 0.345763 333.858 1.32207Z" fill="black"/>
</svg>
